<?xml version="1.0" encoding="UTF-8"?>
<svg xmlns="http://www.w3.org/2000/svg" version="1.1" viewBox="0 0 65.83 65.83">
  <!-- Generator: Adobe Illustrator 28.6.0, SVG Export Plug-In . SVG Version: 1.2.0 Build 709)  -->
  <g>
    <g id="Layer_1">
      <g>
        <path d="M14.07,23.35c0,4.05-3.17,6.9-7.03,6.9C3.17,30.25,0,27.4,0,23.35V0h14.07v23.35Z"/>
        <path d="M32.92,65.83C15.08,65.83,0,56.45,0,41.56v-.64C0,36.87,3.17,34.02,7.03,34.02c3.86,0,7.03,2.85,7.03,6.9v.18c0,8.18,9.29,12.78,18.85,12.78,9.56,0,18.85-4.6,18.85-12.78V0h14.07v41.56c0,14.89-15.08,24.27-32.92,24.27Z"/>
      </g>
    </g>
  </g>
</svg>