<?xml version="1.0" encoding="UTF-8"?>
<svg xmlns="http://www.w3.org/2000/svg" version="1.1" viewBox="0 0 65.83 65.83">
  <!-- Generator: Adobe Illustrator 28.6.0, SVG Export Plug-In . SVG Version: 1.2.0 Build 709)  -->
  <g>
    <g id="Layer_1">
      <path d="M39.26,58.78V7.05C39.26,2.92,36.4,0,32.92,0s-6.35,2.92-6.35,7.05v51.72c0,4.14,2.86,7.05,6.35,7.05s6.35-2.92,6.35-7.05Z"/>
      <path d="M7.05,39.26h25.86s25.86,0,25.86,0c4.14,0,7.05-2.86,7.05-6.35,0-3.49-2.92-6.35-7.05-6.35h-25.86s-25.86,0-25.86,0C2.92,26.57,0,29.43,0,32.92c0,3.49,2.92,6.35,7.05,6.35Z"/>
    </g>
  </g>
</svg>