<?xml version="1.0" encoding="UTF-8"?>
<svg xmlns="http://www.w3.org/2000/svg" version="1.1" viewBox="0 0 65.83 65.83">
  <!-- Generator: Adobe Illustrator 28.6.0, SVG Export Plug-In . SVG Version: 1.2.0 Build 709)  -->
  <g>
    <g id="Layer_1">
      <g>
        <path d="M37.32,11.69c9.44,0,14.75,3.96,14.75,11.15v1.53c0,3.96,3.1,6.75,6.88,6.75,3.78,0,6.88-2.79,6.88-6.75v-1.53C65.83,8.81,54.86,0,37.32,0h-8.81C10.97,0,0,8.81,0,22.84v1.53c0,3.96,3.1,6.75,6.88,6.75,3.78,0,6.88-2.79,6.88-6.75v-1.53c0-7.19,5.31-11.15,14.75-11.15h8.81Z"/>
        <path d="M37.32,65.83c17.54,0,28.51-8.81,28.51-22.84v-1.53c0-3.96-3.1-6.75-6.88-6.75-3.78,0-6.88,2.79-6.88,6.75v1.53c0,7.19-5.31,11.15-14.75,11.15h-8.81c-9.44,0-14.75-3.96-14.75-11.15v-1.53c0-3.96-3.1-6.75-6.88-6.75C3.1,34.71,0,37.5,0,41.46v1.53C0,57.02,10.97,65.83,28.51,65.83h8.81Z"/>
      </g>
    </g>
  </g>
</svg>