<?xml version="1.0" encoding="UTF-8"?>
<svg xmlns="http://www.w3.org/2000/svg" version="1.1" viewBox="0 0 65.83 65.83">
  <!-- Generator: Adobe Illustrator 28.6.0, SVG Export Plug-In . SVG Version: 1.2.0 Build 709)  -->
  <g>
    <g id="Layer_1">
      <path d="M8.18,21.82c0-4.14,3.24-7.05,7.19-7.05,3.95,0,7.19,2.92,7.19,7.05v31.32h10.81c11.1,0,18.06-5.83,18.06-14.95v-10.53c0-9.12-6.96-14.95-18.06-14.95h-10.81c0-4.14-3.24-7.05-7.19-7.05-3.95,0-7.19,2.92-7.19,7.05H0S0,0,0,0h33.39C53.79,0,65.83,10.25,65.83,27.65v10.53c0,17.4-12.04,27.65-32.45,27.65H0v-12.7h8.18v-31.32Z"/>
    </g>
  </g>
</svg>