<?xml version="1.0" encoding="UTF-8"?>
<svg xmlns="http://www.w3.org/2000/svg" version="1.1" viewBox="0 0 65.83 65.83">
  <!-- Generator: Adobe Illustrator 28.6.0, SVG Export Plug-In . SVG Version: 1.2.0 Build 709)  -->
  <g>
    <g id="Layer_1">
      <g>
        <path d="M24.36,46.65c-4.14,0-7.05-2.86-7.05-6.35,0-3.49,2.92-6.35,7.05-6.35h16.24c6.68,0,10.63-5.83,10.63-11,0-4.61-3.95-10.25-10.63-10.25H0V0h40.16C56.05,0,65.83,10.34,65.83,22.95s-9.78,23.7-25.67,23.7h-15.8"/>
        <path d="M14.39,46.65v19.19H0V24.26C0,20.5,3.29,17.68,7.34,17.68c3.76,0,7.05,2.82,7.05,6.58v9.69h-1.11c-4.14,0-7.05,2.86-7.05,6.35,0,3.49,2.92,6.35,7.05,6.35h1.11Z"/>
      </g>
    </g>
  </g>
</svg>