<?xml version="1.0" encoding="UTF-8"?>
<svg xmlns="http://www.w3.org/2000/svg" version="1.1" viewBox="0 0 65.83 65.83">
  <!-- Generator: Adobe Illustrator 28.6.0, SVG Export Plug-In . SVG Version: 1.2.0 Build 709)  -->
  <g>
    <g id="Layer_1">
      <g>
        <path d="M36.24,0C52.43,0,65.02,7.55,65.83,20.15h-14.12c-.9-5.22-6.12-8.45-15.56-8.45h-8.09c-10.88,0-14.66,4.68-14.66,8.9,0,3.42,2.43,6.3,6.12,6.3h4.36c3.96,0,6.75,2.72,6.75,6.03,0,3.31-2.79,6.03-6.75,6.03h-4.63C6.39,38.94,0,30.31,0,21.4,0,10.97,9.08,0,28.15,0h8.09Z"/>
        <path d="M37.68,65.83c19.07,0,28.15-10.97,28.15-21.4,0-8.9-6.39-17.54-19.25-17.54h-5.56c-3.96,0-6.75,2.72-6.75,6.03,0,3.31,2.79,6.03,6.75,6.03h5.29c3.69,0,6.12,2.88,6.12,6.3,0,4.23-3.78,8.9-14.66,8.9h-8.09c-9.44,0-14.66-3.24-15.56-8.45H0c.81,12.59,13.4,20.15,29.59,20.15h8.09Z"/>
      </g>
    </g>
  </g>
</svg>